<svg height="494" width="720" xmlns="http://www.w3.org/2000/svg">
<rect height="494" fill="#555" width="720"></rect>
<text fill="#7f7" font-family="Courier New" font-size="12" xml:space="preserve">
<tspan x="10" y="26">2017-04-26 16:23:19 +0800</tspan>
<tspan x="10" y="42">[npm publishAfterCommitAfterBuild]</tspan>
<tspan x="10" y="58">2017-04-26 09:56:11 +0800</tspan>
<tspan x="10" y="74">[npm publishAfterCommitAfterBuild]</tspan>
<tspan x="10" y="90">2017-04-18 15:53:08 +0000</tspan>
<tspan x="10" y="106">[ci skip] npm published</tspan>
<tspan x="10" y="122"></tspan>
<tspan x="10" y="138">2017-04-18 17:03:23 +0800</tspan>
<tspan x="10" y="154">[npm publishAfterCommitAfterBuild]</tspan>
<tspan x="10" y="170">2017-04-08 07:08:37 +0000</tspan>
<tspan x="10" y="186">[ci skip] npm published</tspan>
<tspan x="10" y="202"></tspan>
<tspan x="10" y="218">2017-04-08 13:28:47 +0800</tspan>
<tspan x="10" y="234">[npm publishAfterCommitAfterBuild]</tspan>
<tspan x="10" y="250">2017-04-08 13:05:15 +0800</tspan>
<tspan x="10" y="266">[npm publishAfterCommitAfterBuild]</tspan>
<tspan x="10" y="282">2017-04-07 20:18:37 +0000</tspan>
<tspan x="10" y="298">[ci skip] npm published</tspan>
<tspan x="10" y="314"></tspan>
<tspan x="10" y="330">2017-04-07 18:13:10 +0800</tspan>
<tspan x="10" y="346">[npm publishAfterCommitAfterBuild]</tspan>
<tspan x="10" y="362">2017-04-02 05:48:14 +0000</tspan>
<tspan x="10" y="378">[npm publishAfterCommit]</tspan>
<tspan x="10" y="394"></tspan>
<tspan x="10" y="410">2017-04-02 05:44:15 +0000</tspan>
<tspan x="10" y="426">[npm publishAfterCommitAfterBuild]</tspan>
<tspan x="10" y="442"></tspan>
<tspan x="10" y="458">2014-03-26 02:31:50 +0700</tspan>
<tspan x="10" y="474">add blank README.md</tspan>
</text>
</svg>
